# File produced by Open Asset Import Library (http://www.assimp.sf.net)
# (assimp v5.0.1588609223)

mtllib result.mtl

# 80 vertex positions
v  -8 -7.999999 -8.000001
v  -8 8.000001 -7.999999
v  8 8.000001 -7.999999
v  8 -7.999999 -8.000001
v  -8 -8.000001 7.999999
v  8 -8.000001 7.999999
v  8 7.999999 8
v  -8 7.999999 8
v  -6.0000005 -20.307379 -0.72808647
v  -6.0000005 -7.1516819 4.0601969
v  -4.0000005 -7.1516819 4.0601969
v  -4.0000005 -20.307379 -0.72808647
v  -6.0000005 -20.991421 1.1512985
v  -4.0000005 -20.991421 1.1512985
v  -4.0000005 -7.835722 5.9395819
v  -6.0000005 -7.835722 5.9395819
v  -1.0000005 -20.307379 -0.72808647
v  -1.0000005 -7.1516819 4.0601969
v  0.99999952 -7.1516819 4.0601969
v  0.99999952 -20.307379 -0.72808647
v  -1.0000005 -20.991421 1.1512985
v  0.99999952 -20.991421 1.1512985
v  0.99999952 -7.835722 5.9395819
v  -1.0000005 -7.835722 5.9395819
v  3.9999995 -20.307379 -0.72808647
v  3.9999995 -7.1516819 4.0601969
v  5.9999995 -7.1516819 4.0601969
v  5.9999995 -20.307379 -0.72808647
v  3.9999995 -20.991421 1.1512985
v  5.9999995 -20.991421 1.1512985
v  5.9999995 -7.835722 5.9395819
v  3.9999995 -7.835722 5.9395819
v  4 -20.307381 -10.728087
v  4 -7.1516819 -5.9398046
v  6 -7.1516819 -5.9398046
v  6 -20.307381 -10.728087
v  4 -20.991421 -8.8487024
v  6 -20.991421 -8.8487024
v  6 -7.835722 -4.0604191
v  4 -7.835722 -4.0604191
v  -1 -20.307381 -10.721128
v  -1 -7.1516819 -5.9328446
v  1 -7.1516819 -5.9328446
v  1 -20.307381 -10.721128
v  -1 -20.991421 -8.8417425
v  1 -20.991421 -8.8417425
v  1 -7.835722 -4.0534592
v  -1 -7.835722 -4.0534592
v  -6 -20.307381 -10.728087
v  -6 -7.1516819 -5.9398046
v  -4 -7.1516819 -5.9398046
v  -4 -20.307381 -10.728087
v  -6 -20.991421 -8.8487024
v  -4 -20.991421 -8.8487024
v  -4 -7.835722 -4.0604191
v  -6 -7.835722 -4.0604191
v  -6.0000005 -20.307381 -5.7280869
v  -6.0000005 -7.1516824 -0.93980408
v  -4.0000005 -7.1516824 -0.93980408
v  -4.0000005 -20.307381 -5.7280869
v  -6.0000005 -20.991421 -3.8487015
v  -4.0000005 -20.991421 -3.8487015
v  -4.0000005 -7.8357224 0.93958187
v  -6.0000005 -7.8357224 0.93958187
v  3.9999995 -20.307381 -5.7280869
v  3.9999995 -7.1516824 -0.93980408
v  5.9999995 -7.1516824 -0.93980408
v  5.9999995 -20.307381 -5.7280869
v  3.9999995 -20.991421 -3.8487015
v  5.9999995 -20.991421 -3.8487015
v  5.9999995 -7.8357224 0.93958187
v  3.9999995 -7.8357224 0.93958187
v  -1.0000002 -20.307381 -5.7280869
v  -1.0000002 -7.1516824 -0.93980408
v  0.99999976 -7.1516824 -0.93980408
v  0.99999976 -20.307381 -5.7280869
v  -1.0000002 -20.991421 -3.8487015
v  0.99999976 -20.991421 -3.8487015
v  0.99999976 -7.8357224 0.93958187
v  -1.0000002 -7.8357224 0.93958187

# 29 UV coordinates
vt 1 0.5 0
vt 1 0.75 0
vt 0.75 0.75 0
vt 0.75 0.5 0
vt 0.25 0.5 0
vt 0.5 0.5 0
vt 0.5 0.75 0
vt 0.25 0.75 0
vt 0.5 1 0
vt 0.75 1 0
vt 0.25 1 0
vt 0 0.75 0
vt 0 0.5 0
vt 0.12499999 0.74999994 0
vt 0.125 0.96872097 0
vt 0.093894653 0.96872097 0
vt 0.093894646 0.74999994 0
vt 0.031427901 0.75 0
vt 0.062499993 0.75 0
vt 0.0625 0.96872097 0
vt 0.031427909 0.96872097 0
vt 0.093894646 1 0
vt 0.0625 1 0
vt 0.062500007 0.96872097 0
vt 0.093894638 0.75 0
vt 0.093894646 0.96872097 0
vt 0.0625 0.75 0
vt 0.031427912 1 0
vt 7.4505806e-09 0.96872097 0

# 17 vertex normals
vn 0 1.1920929e-07 -1
vn 0 -1.1920929e-07 1
vn 0 -1 -1.1920929e-07
vn 1 0 0
vn 0 1 1.1920929e-07
vn -1 0 0
vn 0 0.34202027 -0.93969256
vn 0 -0.34202021 0.93969256
vn 0 -0.93969262 -0.34202012
vn 0 0.93969262 0.34202021
vn 0 0.34202018 -0.93969262
vn 0 -0.34202018 0.93969262
vn 0 -0.93969256 -0.34202012
vn 0 0.93969262 0.34202012
vn 0 -0.34202021 0.93969262
vn 0 0.93969262 0.34202
vn -0.99999994 0 0

# Mesh 'Box001' with 60 faces
g Box001
usemtl 01 - Default
f  1/1/1 2/2/1 3/3/1 4/4/1
f  5/5/2 6/6/2 7/7/2 8/8/2
f  1/9/3 4/10/3 6/3/3 5/7/3
f  4/4/4 3/3/4 7/7/4 6/6/4
f  3/9/5 2/11/5 8/8/5 7/7/5
f  2/12/6 1/13/6 5/5/6 8/8/6
f  9/14/7 10/15/7 11/16/7 12/17/7
f  13/18/8 14/19/8 15/20/8 16/21/8
f  9/16/9 12/22/9 14/23/9 13/24/9
f  12/25/4 11/26/4 15/24/4 14/27/4
f  11/23/10 10/28/10 16/21/10 15/24/10
f  10/29/6 9/12/6 13/18/6 16/21/6
f  17/14/7 18/15/7 19/16/7 20/17/7
f  21/18/8 22/19/8 23/20/8 24/21/8
f  17/16/9 20/22/9 22/23/9 21/24/9
f  20/25/4 19/26/4 23/24/4 22/27/4
f  19/23/10 18/28/10 24/21/10 23/24/10
f  18/29/6 17/12/6 21/18/6 24/21/6
f  25/14/7 26/15/7 27/16/7 28/17/7
f  29/18/8 30/19/8 31/20/8 32/21/8
f  25/16/9 28/22/9 30/23/9 29/24/9
f  28/25/4 27/26/4 31/24/4 30/27/4
f  27/23/10 26/28/10 32/21/10 31/24/10
f  26/29/6 25/12/6 29/18/6 32/21/6
f  33/14/11 34/15/11 35/16/11 36/17/11
f  37/18/12 38/19/12 39/20/12 40/21/12
f  33/16/13 36/22/13 38/23/13 37/24/13
f  36/25/4 35/26/4 39/24/4 38/27/4
f  35/23/14 34/28/14 40/21/14 39/24/14
f  34/29/6 33/12/6 37/18/6 40/21/6
f  41/14/11 42/15/11 43/16/11 44/17/11
f  45/18/12 46/19/12 47/20/12 48/21/12
f  41/16/13 44/22/13 46/23/13 45/24/13
f  44/25/4 43/26/4 47/24/4 46/27/4
f  43/23/14 42/28/14 48/21/14 47/24/14
f  42/29/6 41/12/6 45/18/6 48/21/6
f  49/14/11 50/15/11 51/16/11 52/17/11
f  53/18/12 54/19/12 55/20/12 56/21/12
f  49/16/13 52/22/13 54/23/13 53/24/13
f  52/25/4 51/26/4 55/24/4 54/27/4
f  51/23/14 50/28/14 56/21/14 55/24/14
f  50/29/6 49/12/6 53/18/6 56/21/6
f  57/14/11 58/15/11 59/16/11 60/17/11
f  61/18/15 62/19/15 63/20/15 64/21/15
f  57/16/9 60/22/9 62/23/9 61/24/9
f  60/25/4 59/26/4 63/24/4 62/27/4
f  59/23/16 58/28/16 64/21/16 63/24/16
f  58/29/17 57/12/6 61/18/6 64/21/6
f  65/14/11 66/15/11 67/16/11 68/17/11
f  69/18/15 70/19/15 71/20/15 72/21/15
f  65/16/9 68/22/9 70/23/9 69/24/9
f  68/25/4 67/26/4 71/24/4 70/27/4
f  67/23/16 66/28/16 72/21/16 71/24/16
f  66/29/17 65/12/6 69/18/6 72/21/6
f  73/14/11 74/15/11 75/16/11 76/17/11
f  77/18/15 78/19/15 79/20/15 80/21/15
f  73/16/9 76/22/9 78/23/9 77/24/9
f  76/25/4 75/26/4 79/24/4 78/27/4
f  75/23/16 74/28/16 80/21/16 79/24/16
f  74/29/17 73/12/6 77/18/6 80/21/6

